<svg width="177" height="22" viewBox="0 0 177 22" fill="none" xmlns="http://www.w3.org/2000/svg">
<path d="M68.1188 4.61368H62.0601V0.529266H78.8557V4.61368H72.797V21.4709H68.1188V4.61368Z" fill="#3A2050"/>
<path d="M82.5142 0.529266H87.1923V17.2085H95.8609V21.4709H82.5142V0.529266Z" fill="#3A2050"/>
<path d="M155.141 5.64793C154.76 5.17647 154.243 4.82528 153.594 4.59917C152.946 4.37306 152.331 4.2576 151.751 4.2576C151.409 4.2576 151.063 4.29609 150.702 4.37787C150.341 4.45484 149.999 4.57993 149.682 4.74349C149.36 4.91187 149.102 5.13317 148.902 5.4122C148.702 5.68642 148.599 6.02318 148.599 6.41767C148.599 7.04789 148.843 7.52898 149.321 7.86573C149.799 8.20249 150.404 8.48633 151.136 8.72206C151.863 8.9578 152.648 9.19834 153.487 9.43407C154.331 9.6698 155.112 10.0066 155.843 10.4395C156.57 10.8725 157.18 11.4546 157.658 12.1811C158.136 12.9123 158.375 13.8889 158.375 15.1109C158.375 16.2751 158.156 17.2902 157.717 18.1561C157.278 19.0269 156.682 19.7437 155.931 20.3162C155.185 20.8887 154.316 21.312 153.326 21.5863C152.336 21.8653 151.292 22 150.19 22C148.809 22 147.531 21.7931 146.35 21.3794C145.17 20.9657 144.072 20.297 143.053 19.3685L146.385 15.7603C146.863 16.3906 147.467 16.8813 148.199 17.2276C148.926 17.5692 149.682 17.7424 150.463 17.7424C150.838 17.7424 151.224 17.6991 151.614 17.6077C152.004 17.5211 152.355 17.3864 152.663 17.2084C152.975 17.0352 153.224 16.8043 153.414 16.5301C153.604 16.2558 153.697 15.9287 153.697 15.5535C153.697 14.9232 153.453 14.4277 152.965 14.0621C152.477 13.6965 151.858 13.3886 151.121 13.1288C150.38 12.8738 149.58 12.6188 148.721 12.3591C147.863 12.1041 147.063 11.7577 146.321 11.3247C145.584 10.8918 144.97 10.3193 144.477 9.61207C143.989 8.90007 143.745 7.96195 143.745 6.80254C143.745 5.6768 143.97 4.69058 144.419 3.84387C144.867 2.99716 145.467 2.28515 146.219 1.71266C146.965 1.14017 147.833 0.712006 148.809 0.428165C149.789 0.144325 150.799 0 151.843 0C153.038 0 154.199 0.16838 155.316 0.500328C156.438 0.837088 157.448 1.39996 158.346 2.18412L155.141 5.64793Z" fill="#3A2050"/>
<path d="M162.034 0.529266H176.459V4.79168H166.712V8.69327H175.922V12.9509H166.712V17.2085H177V21.4709H162.034V0.529266Z" fill="#3A2050"/>
<path d="M14.2443 0.514832V4.77724H4.67818V9.03484H13.5272V13.2924H4.67818V21.4564H0V0.514832H14.2443Z" fill="#3A2050"/>
<path d="M48.9135 0C42.7524 0 37.7571 4.9215 37.7571 11.0024C37.7571 17.0737 42.7524 22 48.9135 22C55.0747 22 60.0699 17.0737 60.0699 11.0024C60.0699 4.9215 55.0747 0 48.9135 0ZM48.9135 17.7472C45.1378 17.7472 42.0743 14.726 42.0743 11.0024C42.0743 7.274 45.1378 4.25279 48.9135 4.25279C52.6941 4.25279 55.7576 7.274 55.7576 11.0024C55.7576 14.726 52.6941 17.7472 48.9135 17.7472Z" fill="#E73743"/>
<path d="M26.2298 1.43365C20.8736 1.43365 16.532 5.72012 16.532 10.9976C16.532 16.2799 20.8736 20.5664 26.2298 20.5664C31.5861 20.5664 35.9277 16.2799 35.9277 10.9976C35.9277 5.72012 31.5861 1.43365 26.2298 1.43365ZM26.2298 16.3136C23.2542 16.3136 20.8443 13.9322 20.8443 10.9976C20.8443 8.06781 23.2542 5.69125 26.2298 5.69125C29.2055 5.69125 31.6154 8.06781 31.6154 10.9976C31.6154 13.9322 29.2055 16.3136 26.2298 16.3136Z" fill="#E73743"/>
<path d="M130.067 0C123.911 0 118.915 4.9215 118.915 11.0024C118.915 17.0737 123.911 22 130.067 22C136.228 22 141.223 17.0737 141.223 11.0024C141.223 4.9215 136.228 0 130.067 0ZM130.067 17.7472C126.291 17.7472 123.228 14.726 123.228 11.0024C123.228 7.274 126.291 4.25279 130.067 4.25279C133.847 4.25279 136.911 7.274 136.911 11.0024C136.911 14.726 133.847 17.7472 130.067 17.7472Z" fill="#E73743"/>
<path d="M107.388 1.43365C102.032 1.43365 97.6856 5.72012 97.6856 10.9976C97.6856 16.2799 102.032 20.5664 107.388 20.5664C112.745 20.5664 117.086 16.2799 117.086 10.9976C117.086 5.72012 112.745 1.43365 107.388 1.43365ZM107.388 16.3136C104.413 16.3136 102.003 13.9322 102.003 10.9976C102.003 8.06781 104.413 5.69125 107.388 5.69125C110.359 5.69125 112.769 8.06781 112.769 10.9976C112.769 13.9322 110.359 16.3136 107.388 16.3136Z" fill="#E73743"/>
</svg>
